<svg width="56" height="56" viewBox="0 0 56 56" fill="none" xmlns="http://www.w3.org/2000/svg">
<path fill-rule="evenodd" clip-rule="evenodd" d="M25.0603 0.125542C19.1224 0.653792 12.9169 3.55717 8.64901 7.80379C6.74414 9.69917 5.12326 11.7178 4.08014 13.4942C1.64089 17.6475 0.523388 21.2078 0.078013 26.2442C-0.377862 31.399 1.18564 37.5097 4.20676 42.3805C8.56676 49.4104 15.678 54.1322 23.8946 55.4529C25.8089 55.7607 29.861 55.7622 31.808 55.4558C35.6986 54.8437 39.288 53.4909 42.6866 51.3558C44.5536 50.1829 45.6335 49.3164 47.3431 47.6192C49.8116 45.1687 51.2745 43.1774 52.7615 40.2442C54.7955 36.2317 55.741 32.2877 55.7279 27.8692C55.7185 24.6959 55.4041 22.7424 54.3803 19.4942C52.223 12.6507 47.2209 6.60254 40.9554 3.26242C36.0698 0.657792 30.7894 -0.384208 25.0603 0.125542ZM25.1446 3.00717C21.9961 3.33692 18.4064 4.53229 15.4176 6.24617C10.5439 9.04129 6.62451 13.7053 4.54614 19.1834C3.27501 22.5342 2.64576 26.595 2.94876 29.4942C3.37714 33.5935 4.30539 36.671 6.07801 39.8692C8.65776 44.5235 12.294 47.9652 17.0821 50.2839C20.6529 52.0132 23.9181 52.7455 28.046 52.7432C30.2263 52.7418 31.627 52.5839 33.5196 52.126C40.8201 50.3599 46.5133 45.8908 50.1233 39.0918C52.4553 34.6999 53.4243 28.8962 52.5918 24.3067C51.8415 20.1704 50.6925 17.1807 48.7184 14.2288C43.383 6.25079 34.5088 2.02654 25.1446 3.00717ZM16.5336 14.5965C16.4988 14.6529 15.9568 16.72 15.3291 19.1903C14.7016 21.6605 14.0483 24.216 13.8774 24.8692C13.7064 25.5223 13.0893 27.941 12.5059 30.2442C11.9224 32.5473 11.3648 34.7044 11.2666 35.0378L11.0883 35.6439L11.3665 35.4647C11.5195 35.3662 11.9259 35.1249 12.2696 34.9287C12.6134 34.7324 13.2093 34.3613 13.5939 34.104C14.2919 33.6372 14.2938 33.6343 14.6206 32.4715C14.9444 31.32 18.2071 18.4368 18.2071 18.3098C18.2071 18.2737 22.5643 18.2442 27.8896 18.2442H37.5721L37.6995 18.7129C37.8408 19.2325 38.9358 23.4855 40.3785 29.1192C40.898 31.1473 41.3828 33.0133 41.4558 33.2659C41.5735 33.6728 41.7609 33.8332 43.096 34.67L44.6034 35.6148L44.5209 35.1262C44.4456 34.6814 42.5104 27.0237 40.1991 18.0254L39.292 14.4942H36.2496H33.2071V15.2442V15.9942H27.8321H22.4571V15.2442V14.4942H19.527C17.9154 14.4942 16.5684 14.5403 16.5336 14.5965ZM19.4571 24.9419V30.5145L19.8634 30.2702C20.0868 30.1358 20.7619 29.7327 21.3634 29.3742L22.4571 28.7225V28.1709V27.6192H27.825H33.1928L33.2313 28.1403C33.2696 28.6607 33.2719 28.6628 34.7479 29.5778C35.5609 30.0818 36.2871 30.4942 36.3618 30.4942C36.4581 30.4942 36.4735 29.434 36.415 26.8379C36.3696 24.8269 36.3325 22.3222 36.3324 21.2715L36.3321 19.3614L34.8009 19.3965L33.2696 19.4317L33.2361 22.4004L33.2026 25.3692H27.8299H22.4571V22.3692V19.3692H20.9571H19.4571V24.9419ZM23.0134 29.7274C22.9481 29.7869 22.5853 30.0023 22.2071 30.206C21.1189 30.7925 16.6281 33.5122 13.8946 35.24C12.5196 36.1093 10.7196 37.2453 9.89464 37.7647L8.39464 38.7088L8.35901 39.9764L8.32339 41.2442L13.7965 41.246C16.8068 41.247 25.5836 41.2829 33.3009 41.3259L47.3321 41.404L47.351 40.6679C47.3614 40.2629 47.3833 39.6708 47.3996 39.3519L47.4294 38.7722L43.5995 36.3398C39.1375 33.5059 38.325 33.0054 35.0358 31.0647L32.586 29.6192H27.8591C25.2593 29.6192 23.0786 29.6678 23.0134 29.7274ZM28.3365 31.0514C28.2386 31.1694 28.0614 31.2088 27.8336 31.1632C27.6401 31.1245 27.3969 31.1409 27.293 31.1998C27.1318 31.291 27.1476 31.361 27.4011 31.678L27.6981 32.0495L28.0884 31.678C28.5283 31.2594 28.776 30.8692 28.6019 30.8692C28.5391 30.8692 28.4198 30.9512 28.3365 31.0514ZM27.4498 34.2515C27.1458 34.5555 27.1594 35.2124 27.4736 35.409C27.7706 35.5949 28.4288 35.2867 28.6505 34.8578C28.875 34.4238 28.8751 34.43 28.6358 34.1905C28.3599 33.9148 27.7555 33.9458 27.4498 34.2515ZM27.61 37.4388C27.2525 37.6892 27.2235 38.4822 27.5608 38.7873C28.0883 39.2647 29.0841 38.844 29.0803 38.1455C29.0779 37.7368 28.9814 37.5773 28.6216 37.3879C28.2493 37.1919 27.9401 37.2074 27.61 37.4388ZM27.7629 38.255C27.7168 38.3298 27.7366 38.4487 27.8071 38.5192C27.9649 38.6769 28.2071 38.5437 28.2071 38.2993C28.2071 38.0888 27.8854 38.0568 27.7629 38.255Z" fill="black"/>
</svg>
